<svg xmlns="http://www.w3.org/2000/svg" viewBox="0 0 800 600" role="img" aria-label="Rear Brake Shoe Set"><defs><linearGradient id="bg" x1="0" y1="0" x2="1" y2="1"><stop stop-color="#19212a"/><stop offset="1" stop-color="#080b0f"/></linearGradient><filter id="shadow"><feDropShadow dx="0" dy="14" stdDeviation="12" flood-opacity=".45"/></filter></defs><rect width="800" height="600" rx="34" fill="url(#bg)"/><ellipse cx="400" cy="485" rx="255" ry="35" fill="#000" opacity=".42"/><g filter="url(#shadow)"><g fill="none" stroke="#c38a45" stroke-width="44" stroke-linecap="round"><path d="M225 180Q115 300 225 420"/><path d="M575 180Q685 300 575 420"/></g><g fill="none" stroke="#f0bf76" stroke-width="10"><path d="M225 180Q115 300 225 420"/><path d="M575 180Q685 300 575 420"/></g><g stroke="#252b32" stroke-width="12"><path d="M195 218l48 18M180 285l55 0M195 382l48-18M605 218l-48 18M620 285l-55 0M605 382l-48-18"/></g></g><text x="40" y="68" font-family="Arial, sans-serif" font-size="20" font-weight="700" letter-spacing="3" fill="#d7793e">PHOENIX GARAGE</text><text x="40" y="545" font-family="Arial, sans-serif" font-size="25" font-weight="700" fill="#edf1f5">Rear Brake Shoe Set</text><text x="40" y="573" font-family="Arial, sans-serif" font-size="16" letter-spacing="2" fill="#aab5bf">REAR BRAKE SHOES</text></svg>